<svg id="Capa_1" data-name="Capa 1" xmlns="http://www.w3.org/2000/svg" viewBox="0 0 329.25 143.34"><defs><style>.cls-1{fill:#722282;}.cls-2,.cls-3{fill:#f18a00;}.cls-3{fill-rule:evenodd;}</style></defs><path class="cls-1" d="M142,42.16V88.37h-7V59L122.14,88.37h-7.92L101.6,59.21V88.37h-7V42.16h7.33L118.2,79.88l16.47-37.72Z"/><path class="cls-1" d="M183.47,42.16V88.37h-7.33l-19.77-33v33h-7V42.16h7.33l19.74,33v-33Z"/><path class="cls-1" d="M197.84,88.37h-7V42.22h7Z"/><path class="cls-2" d="M212.5,42.16v39.2h16.57v7H205.49V42.16Z"/><path class="cls-2" d="M241.76,88.37h-7V42.22h7Z"/><path class="cls-2" d="M273,42.16v7H256.42V61.7h12.79v7H256.42V88.37h-7V42.16Z"/><path class="cls-2" d="M302.18,42.16v7H285.62V61.7H298.4v7H285.62V81.36h16.56v7H278.61V42.16Z"/><path class="cls-3" d="M45.42,82.81c-8.8-.42-12.76-6.68-13.47-12.06l0-.25-.09-.25H27.06a8.77,8.77,0,0,0,.07,1.15,19,19,0,0,0,5.5,11.15,19.29,19.29,0,0,0,13.76,5.17,21.43,21.43,0,0,0,4.66-.49A22.93,22.93,0,0,1,45.42,82.81Z"/><path class="cls-1" d="M82.19,108.21A5.59,5.59,0,0,1,80,106.12a6.16,6.16,0,0,1,0-6A5.59,5.59,0,0,1,82.19,98a6.37,6.37,0,0,1,3.11-.76,6.48,6.48,0,0,1,2.45.45,5.08,5.08,0,0,1,1.9,1.33l-1.07,1a4.27,4.27,0,0,0-3.22-1.35,4.67,4.67,0,0,0-2.3.57,4.12,4.12,0,0,0-1.61,1.57,4.65,4.65,0,0,0,0,4.5,4.12,4.12,0,0,0,1.61,1.57,4.67,4.67,0,0,0,2.3.57,4.24,4.24,0,0,0,3.22-1.37l1.07,1a5.06,5.06,0,0,1-1.91,1.34,6.72,6.72,0,0,1-5.55-.3Z"/><path class="cls-1" d="M93.44,107.66a5.16,5.16,0,0,1-1.28-3.76V97.4h1.63v6.44c0,2.45,1.08,3.67,3.22,3.67a3.09,3.09,0,0,0,2.4-.9,4,4,0,0,0,.84-2.77V97.4h1.58v6.5a5.16,5.16,0,0,1-1.27,3.77,5.51,5.51,0,0,1-7.12,0Z"/><path class="cls-1" d="M105.51,97.4h1.63v11.44h-1.63Z"/><path class="cls-1" d="M110.9,97.4h4.82a7,7,0,0,1,3.22.72,5.32,5.32,0,0,1,2.18,2,6.08,6.08,0,0,1,0,6,5.32,5.32,0,0,1-2.18,2,7,7,0,0,1-3.22.72H110.9Zm4.72,10a5.25,5.25,0,0,0,2.44-.54,3.91,3.91,0,0,0,1.63-1.51,4.73,4.73,0,0,0,0-4.5,3.91,3.91,0,0,0-1.63-1.51,5.25,5.25,0,0,0-2.44-.54h-3.09v8.6Z"/><path class="cls-1" d="M131.84,106h-6.07l-1.26,2.86h-1.68L128,97.4h1.62l5.2,11.44H133.1Zm-.57-1.31-2.46-5.6-2.47,5.6Z"/><path class="cls-1" d="M146.68,97.4v11.44h-1.34l-6.86-8.53v8.53h-1.64V97.4h1.34l6.87,8.53V97.4Z"/><path class="cls-1" d="M150.44,97.4h4.82a6.9,6.9,0,0,1,3.21.72,5.28,5.28,0,0,1,2.19,2,6.15,6.15,0,0,1,0,6,5.28,5.28,0,0,1-2.19,2,6.9,6.9,0,0,1-3.21.72h-4.82Zm4.72,10a5.28,5.28,0,0,0,2.44-.54,4,4,0,0,0,1.63-1.51,4.73,4.73,0,0,0,0-4.5,4,4,0,0,0-1.63-1.51,5.28,5.28,0,0,0-2.44-.54h-3.09v8.6Z"/><path class="cls-1" d="M166.3,108.21a5.64,5.64,0,0,1-2.18-2.1,6.05,6.05,0,0,1,0-6A5.64,5.64,0,0,1,166.3,98a6.38,6.38,0,0,1,3.12-.76,6.3,6.3,0,0,1,3.1.76,5.62,5.62,0,0,1,2.18,2.09,6.16,6.16,0,0,1,0,6,5.62,5.62,0,0,1-2.18,2.09,6.3,6.3,0,0,1-3.1.76A6.38,6.38,0,0,1,166.3,108.21Zm5.38-1.27a4.2,4.2,0,0,0,1.59-1.57,4.65,4.65,0,0,0,0-4.5,4.2,4.2,0,0,0-1.59-1.57,4.49,4.49,0,0,0-2.26-.57,4.59,4.59,0,0,0-2.28.57,4.16,4.16,0,0,0-1.6,1.57,4.65,4.65,0,0,0,0,4.5,4.16,4.16,0,0,0,1.6,1.57,4.59,4.59,0,0,0,2.28.57A4.49,4.49,0,0,0,171.68,106.94Z"/><path class="cls-1" d="M190.32,106h-6.08L183,108.84H181.3l5.18-11.44h1.61l5.2,11.44h-1.72Zm-.58-1.31-2.46-5.6-2.47,5.6Z"/><path class="cls-1" d="M200,97.4h1.63v10h6.19v1.42H200Z"/><path class="cls-1" d="M217.4,106h-6.07l-1.26,2.86h-1.68l5.17-11.44h1.62l5.2,11.44h-1.72Zm-.57-1.31-2.47-5.6-2.46,5.6Z"/><path class="cls-1" d="M235.05,103.05h1.57v4.46a6.12,6.12,0,0,1-2,1.08,7.42,7.42,0,0,1-2.35.38,6.32,6.32,0,0,1-3.12-.76,5.55,5.55,0,0,1-2.18-2.09,5.75,5.75,0,0,1-.8-3,5.82,5.82,0,0,1,.8-3A5.48,5.48,0,0,1,229.17,98a6.57,6.57,0,0,1,3.15-.75,6.65,6.65,0,0,1,2.49.45,5,5,0,0,1,1.9,1.32l-1,1a4.6,4.6,0,0,0-3.32-1.32,4.76,4.76,0,0,0-2.34.56,4.17,4.17,0,0,0-1.63,1.57,4.67,4.67,0,0,0,0,4.51,4.24,4.24,0,0,0,1.63,1.57,4.76,4.76,0,0,0,2.33.57,4.85,4.85,0,0,0,2.68-.73Z"/><path class="cls-1" d="M248.36,107.42v1.42h-8.3V97.4h8.07v1.42H241.7v3.52h5.73v1.38H241.7v3.7Z"/><path class="cls-1" d="M261.17,97.4v11.44h-1.34L253,100.31v8.53h-1.63V97.4h1.34l6.86,8.53V97.4Z"/><path class="cls-1" d="M267.2,98.82h-3.92V97.4h9.46v1.42h-3.92v10H267.2Z"/><path class="cls-1" d="M283.15,107.42v1.42h-8.3V97.4h8.07v1.42h-6.44v3.52h5.73v1.38h-5.73v3.7Z"/><path class="cls-2" d="M78.06,52.57a18.46,18.46,0,0,1,4.5,7.34h6a24.22,24.22,0,0,0-23-18.55L59.86,47.9a18.48,18.48,0,0,1,18.2,4.67Z"/><path class="cls-2" d="M82.87,70.24A18.45,18.45,0,0,1,65,84a18.85,18.85,0,0,1-3.75-.37A18.5,18.5,0,0,1,47.2,70.29,18.51,18.51,0,0,1,46.74,68a19.3,19.3,0,0,1-.14-2.38,18.6,18.6,0,0,1,.73-5.19c.12-.42.26-.82.41-1.22H41.65A23.7,23.7,0,0,0,41,68.7a22.85,22.85,0,0,0,.59,3A24.23,24.23,0,0,0,55.42,87.86a24.51,24.51,0,0,0,9.61,2,24.23,24.23,0,0,0,23.8-19.61Z"/><path class="cls-1" d="M63,67.33H59.24l-.74,1.72H57.07l3.37-7.47H61.8l3.38,7.47H63.72Zm-.46-1.09L61.11,63l-1.4,3.27Z"/><path class="cls-1" d="M73,61.58v7.47H71.84l-4.12-5v5H66.34V61.58h1.14l4.12,5.06V61.58Zm-3-.71a4.39,4.39,0,0,1-.48-.32l-.29-.21a.35.35,0,0,0-.21-.07.47.47,0,0,0-.37.17.74.74,0,0,0-.16.47h-.71a1.61,1.61,0,0,1,.32-1,1,1,0,0,1,.83-.39,1,1,0,0,1,.46.11,2.85,2.85,0,0,1,.49.32l.28.21a.49.49,0,0,0,.22.06.47.47,0,0,0,.37-.16.65.65,0,0,0,.16-.44h.71a1.61,1.61,0,0,1-.33,1,1.1,1.1,0,0,1-1.29.28Z"/><path class="cls-1" d="M76.63,68.67a3.75,3.75,0,0,1-1.44-1.38,3.93,3.93,0,0,1,0-3.94A3.68,3.68,0,0,1,76.63,62a4.58,4.58,0,0,1,4.12,0,3.72,3.72,0,0,1,1.44,1.37,3.8,3.8,0,0,1,.52,2,3.72,3.72,0,0,1-2,3.35,4.58,4.58,0,0,1-4.12,0ZM80,67.61a2.43,2.43,0,0,0,.94-.94A2.85,2.85,0,0,0,81,64,2.36,2.36,0,0,0,80,63a2.69,2.69,0,0,0-1.34-.34,2.76,2.76,0,0,0-1.35.34,2.4,2.4,0,0,0-.93.94,2.78,2.78,0,0,0,0,2.7,2.47,2.47,0,0,0,.93.94,2.75,2.75,0,0,0,1.35.33A2.69,2.69,0,0,0,80,67.61Z"/><path class="cls-1" d="M85.05,68.92a3.42,3.42,0,0,1-1.28-.66l.48-1.07a3.76,3.76,0,0,0,1.13.59,4.15,4.15,0,0,0,1.34.23A2.28,2.28,0,0,0,88,67.74a.81.81,0,0,0,.41-.7.69.69,0,0,0-.23-.53,1.63,1.63,0,0,0-.58-.33l-1-.26a10.9,10.9,0,0,1-1.38-.41,2.23,2.23,0,0,1-.91-.63,1.73,1.73,0,0,1-.38-1.17,2,2,0,0,1,.34-1.13,2.17,2.17,0,0,1,1-.8,4.1,4.1,0,0,1,1.66-.3,5,5,0,0,1,1.34.17,3.44,3.44,0,0,1,1.15.49L89,63.22a4,4,0,0,0-1-.44,3.77,3.77,0,0,0-1-.15,2.09,2.09,0,0,0-1.22.28.84.84,0,0,0-.4.73.66.66,0,0,0,.23.53,1.69,1.69,0,0,0,.58.32c.23.07.55.16,1,.26a11.76,11.76,0,0,1,1.36.4,2.29,2.29,0,0,1,.92.64,1.68,1.68,0,0,1,.38,1.15,2,2,0,0,1-.34,1.12,2.21,2.21,0,0,1-1,.8,4.1,4.1,0,0,1-1.66.3A5.76,5.76,0,0,1,85.05,68.92Z"/><path class="cls-3" d="M65.42,59.91a16.7,16.7,0,0,0-3.26-4.14A18.33,18.33,0,0,0,56,52.09q-.85-.3-1.74-.54l-.24.07.09-.1a1.05,1.05,0,0,0-.24-.06L68.73,34.37H34V40H56.44L46.19,51.78l-4,4.63h6.17a14.51,14.51,0,0,1,10,3.5Z"/><path class="cls-3" d="M61.92,70.24a14.67,14.67,0,0,1-4.76,9.85,13.61,13.61,0,0,0,1.33.65,16,16,0,0,0,3.19,1c.46.1.93.17,1.41.23a20.93,20.93,0,0,0,4.45-11.73Z"/></svg>